<svg width="13" height="13" viewBox="0 0 13 13" fill="none" xmlns="http://www.w3.org/2000/svg">
<g clip-path="url(#clip0_4839_1785)">
<path d="M8.68472 4.06238C8.25612 2.07175 7.34206 0.812378 6.49666 0.812378C5.65125 0.812378 4.73719 2.07175 4.30859 4.06238H8.68472Z" fill="white"/>
<path d="M4.05859 6.49988C4.05849 7.04336 4.09473 7.58623 4.16706 8.12488H8.82513C8.89746 7.58623 8.9337 7.04336 8.93359 6.49988C8.9337 5.9564 8.89746 5.41352 8.82513 4.87488H4.16706C4.09473 5.41352 4.05849 5.9564 4.05859 6.49988Z" fill="white"/>
<path d="M4.30859 8.93738C4.73719 10.928 5.65125 12.1874 6.49666 12.1874C7.34206 12.1874 8.25612 10.928 8.68472 8.93738H4.30859Z" fill="white"/>
<path d="M9.51366 4.06217H12.073C11.6885 3.18702 11.1042 2.41416 10.367 1.80559C9.62982 1.19703 8.76028 0.76969 7.82812 0.557861C8.59878 1.23589 9.20328 2.48958 9.51366 4.06217Z" fill="white"/>
<path d="M12.3668 4.87488H9.64494C9.71196 5.41395 9.74547 5.95666 9.74528 6.49988C9.74533 7.04311 9.71169 7.58582 9.64453 8.12488H12.3664C12.6627 7.0618 12.6631 5.93796 12.3668 4.87488Z" fill="white"/>
<path d="M7.82812 12.4417C8.76043 12.23 9.63013 11.8027 10.3675 11.1941C11.1048 10.5855 11.6892 9.81263 12.0738 8.93738H9.51447C9.20328 10.51 8.59878 11.7637 7.82812 12.4417Z" fill="white"/>
<path d="M3.47344 8.93738H0.914062C1.2987 9.81263 1.88312 10.5855 2.62045 11.1941C3.35778 11.8027 4.22748 12.23 5.15978 12.4417C4.38831 11.7637 3.78381 10.51 3.47344 8.93738Z" fill="white"/>
<path d="M5.15978 0.557861C4.22748 0.769576 3.35778 1.19686 2.62045 1.80543C1.88312 2.414 1.2987 3.18692 0.914062 4.06217H3.47344C3.78463 2.48958 4.38913 1.23589 5.15978 0.557861Z" fill="white"/>
<path d="M3.24567 6.49988C3.24562 5.95665 3.27926 5.41394 3.34642 4.87488H0.624543C0.328277 5.93796 0.328277 7.0618 0.624543 8.12488H3.34642C3.27926 7.58582 3.24562 7.04311 3.24567 6.49988Z" fill="white"/>
</g>
<defs>
<clipPath id="clip0_4839_1785">
<rect width="13" height="13" fill="white"/>
</clipPath>
</defs>
</svg>
